# xmcd
#
# Track frame offsets:
#	150
#	33039
#	63042
#	99053
#	120225
#	168067
#	197461
#
# Disc length: 3230 seconds
#
# Revision: 1
# Processed by: cddbd v1.5.2PL0 Copyright (c) Steve Scherf et al.
# Submitted via: audiograbber 1.83.01
#
DISCID=3b0c9c07
DTITLE=Grateful Dead - 77-05-18 Fox Theatre, Atlanta GA
DYEAR=1900
DGENRE=
TTITLE0=Deal
TTITLE1=Cassidy
TTITLE2=Jack-A-Roe
TTITLE3=Mexicali Blues
TTITLE4=Friend Of The Devil
TTITLE5=New Minglewood Blues
TTITLE6=It Must Have Been The Roses
EXTD=
EXTT0=
EXTT1=
EXTT2=
EXTT3=
EXTT4=
EXTT5=
EXTT6=
PLAYORDER=
